<?xml version="1.0" encoding="UTF-8" standalone="no"?>
<!-- Generator: Adobe Illustrator 16.0.0, SVG Export Plug-In . SVG Version: 6.00 Build 0)  -->

<svg
   xmlns:dc="http://purl.org/dc/elements/1.1/"
   xmlns:cc="http://creativecommons.org/ns#"
   xmlns:rdf="http://www.w3.org/1999/02/22-rdf-syntax-ns#"
   xmlns:svg="http://www.w3.org/2000/svg"
   xmlns="http://www.w3.org/2000/svg"
   xmlns:sodipodi="http://sodipodi.sourceforge.net/DTD/sodipodi-0.dtd"
   xmlns:inkscape="http://www.inkscape.org/namespaces/inkscape"
   version="1.1"
   id="Layer_1"
   x="0px"
   y="0px"
   width="512"
   height="965.34741"
   viewBox="0 0 512 965.34741"
   enable-background="new 0 0 512 512"
   xml:space="preserve"
   inkscape:version="0.91 r13725"
   sodipodi:docname="maplist.svg"><metadata
     id="metadata9829"><rdf:RDF><cc:Work
         rdf:about=""><dc:format>image/svg+xml</dc:format><dc:type
           rdf:resource="http://purl.org/dc/dcmitype/StillImage" /><dc:title></dc:title></cc:Work></rdf:RDF></metadata><defs
     id="defs9827" /><sodipodi:namedview
     pagecolor="#ffffff"
     bordercolor="#666666"
     borderopacity="1"
     objecttolerance="10"
     gridtolerance="10"
     guidetolerance="10"
     inkscape:pageopacity="0"
     inkscape:pageshadow="2"
     inkscape:window-width="1173"
     inkscape:window-height="786"
     id="namedview9825"
     showgrid="false"
     fit-margin-top="0"
     fit-margin-left="0"
     fit-margin-right="0"
     fit-margin-bottom="0"
     inkscape:zoom="0.4609375"
     inkscape:cx="256"
     inkscape:cy="556.8055"
     inkscape:window-x="701"
     inkscape:window-y="231"
     inkscape:window-maximized="0"
     inkscape:current-layer="Layer_1" /><path
     d="m 416,0 c -44.188,0 -80,35.813 -80,80 0,11.938 2.625,23.281 7.313,33.438 L 416,256 488.688,113.437 C 493.375,103.281 496,91.938 496,80 496,35.813 460.188,0 416,0 Z m 0,128 c -26.5,0 -48,-21.5 -48,-48 0,-26.5 21.5,-48 48,-48 26.5,0 48,21.5 48,48 0,26.5 -21.5,48 -48,48 z m 23.938,151.469 29.125,58.219 -73.844,36.906 -24.75,-123.813 4.156,-4.156 0.438,-0.438 -15.25,-30 L 352,224 256,160 160,224 96,160 0,352 128,416 256,352 384,416 512,352 458,244.031 439.938,279.469 Z M 116.75,374.594 42.937,337.688 104.75,214 l 32.625,32.625 4.156,4.156 -24.781,123.813 z M 240,324.219 l -89.5,44.75 23.125,-115.594 4.125,-2.75 62.25,-41.5 0,115.094 z m 32,0 0,-115.094 62.25,41.5 4.094,2.75 23.125,115.594 L 272,324.219 Z"
     id="path9823"
     inkscape:connector-curvature="0" /><g
     transform="matrix(1.0867797,0,0,1.0585031,-13.603387,456.32445)"
     id="g9832"><rect
       x="156"
       y="434"
       width="299"
       height="45"
       id="rect9834" /><rect
       x="55"
       y="434"
       width="56"
       height="45"
       id="rect9836" /></g><g
     transform="matrix(1.0867797,0,0,1.0585031,-13.603387,456.32445)"
     id="g9838"><rect
       x="156"
       y="334"
       width="299"
       height="45"
       id="rect9840" /><rect
       x="55"
       y="334"
       width="56"
       height="45"
       id="rect9842" /></g><g
     transform="matrix(1.0867797,0,0,1.0585031,-13.603387,456.32445)"
     id="g9844"><rect
       x="55"
       y="234"
       width="56"
       height="45"
       id="rect9846" /><rect
       x="156"
       y="234"
       width="299"
       height="45"
       id="rect9848" /></g><g
     transform="matrix(1.0867797,0,0,1.0585031,-13.603387,456.32445)"
     id="g9850"><rect
       x="55"
       y="134"
       width="56"
       height="45"
       id="rect9852" /><rect
       x="156"
       y="134"
       width="299"
       height="45"
       id="rect9854" /></g><g
     transform="matrix(1.0867797,0,0,1.0585031,-13.603387,456.32445)"
     id="g9856"><rect
       x="55"
       y="34"
       width="56"
       height="45"
       id="rect9858" /><rect
       x="156"
       y="34"
       width="299"
       height="45"
       id="rect9860" /></g></svg>