<?xml version="1.0" encoding="UTF-8"?>
<svg xmlns="http://www.w3.org/2000/svg" xmlns:xlink="http://www.w3.org/1999/xlink" clip-rule="evenodd" stroke-miterlimit="10" viewBox="0 0 240.94 283.46">
    <desc>SVG generated by Lineform</desc>
    <defs/>
    <g>
        <g>
            <path d="M 55.66 29.22 C 62.76 27.64 70.21 26.24 77.46 27.82 C 82.76 28.92 87.28 32.38 92.68 33.15 C 104.06 34.64 115.94 35.19 126.38 40.51 C 138.64 45.90 148.39 56.64 153.00 69.15 C 159.44 83.27 158.17 100.31 151.24 114.00 C 145.43 112.76 139.44 112.09 133.97 109.61 C 128.84 107.72 124.54 104.27 120.48 100.71 C 124.29 94.90 127.34 87.98 125.97 80.89 C 125.18 72.64 119.69 65.40 112.44 61.62 C 103.89 56.67 92.69 55.41 83.85 60.36 C 78.74 63.23 72.78 65.47 66.86 64.29 C 63.66 64.00 62.66 60.41 62.24 57.76 C 61.91 53.36 63.31 48.36 66.96 45.61 C 69.99 44.16 74.23 46.74 76.68 43.74 C 78.17 42.38 77.25 39.77 75.67 38.88 C 73.16 37.38 69.94 37.33 67.28 38.46 C 66.36 40.05 66.01 41.87 65.45 43.60 C 61.31 43.59 57.08 43.47 53.16 41.99 C 49.51 40.70 46.65 37.96 44.00 35.24 C 47.43 32.47 51.29 30.11 55.66 29.22 M 147.97 36.35 C 154.14 36.65 158.66 31.61 164.48 30.49 C 170.77 29.27 177.27 30.00 183.46 31.45 C 187.66 32.43 192.04 33.37 195.66 35.86 C 196.48 37.63 194.77 39.06 193.89 40.42 C 191.26 44.11 187.07 46.08 183.06 47.87 C 180.93 45.56 178.27 42.54 174.75 43.77 C 171.89 43.83 170.81 46.55 169.76 48.74 C 172.94 50.02 176.28 50.80 179.59 51.65 C 178.64 54.78 177.31 57.82 176.79 61.06 C 176.93 63.34 178.56 65.19 179.55 67.17 C 173.64 66.82 167.39 66.98 161.99 64.18 C 158.92 62.54 155.41 61.98 152.33 60.40 C 149.15 57.13 146.80 53.14 143.55 49.92 C 139.14 45.06 133.30 41.95 127.93 38.32 C 134.55 37.15 141.23 36.23 147.97 36.35 M 229.94 53.43 C 230.02 53.45 230.18 53.51 230.26 53.53 C 230.18 53.51 230.02 53.45 229.94 53.43 M 85.08 73.87 C 88.81 68.39 93.34 63.25 99.03 59.74 C 106.51 59.92 113.33 63.84 118.62 68.92 C 114.88 73.62 111.28 79.17 111.96 85.48 C 112.25 97.96 122.27 108.12 133.51 112.17 C 150.74 118.27 169.32 119.06 186.70 124.67 C 191.88 126.44 196.33 129.77 200.65 133.06 C 208.06 138.66 212.63 147.10 216.08 155.53 C 221.41 172.16 217.30 190.12 210.74 205.78 C 192.44 206.73 174.54 212.27 158.44 220.91 C 153.14 223.69 148.44 227.44 143.29 230.47 C 145.44 218.28 146.40 205.30 142.28 193.41 C 138.67 183.30 130.65 175.90 123.24 168.53 C 117.11 163.05 110.52 158.05 104.81 152.12 C 100.34 147.03 95.41 142.30 91.60 136.67 C 85.90 127.54 80.83 117.73 79.51 106.90 C 78.33 95.73 78.81 83.59 85.08 73.87 M 39.12 131.25 C 49.83 121.42 64.46 117.72 78.42 115.33 C 82.17 130.23 91.47 143.00 102.12 153.78 C 106.95 158.29 111.86 162.71 116.58 167.35 C 107.48 178.80 100.26 192.46 99.45 207.32 C 98.73 215.97 100.04 224.64 102.78 232.85 C 91.01 222.40 77.51 213.82 62.72 208.37 C 56.48 206.42 50.13 204.35 43.53 204.27 C 39.09 204.09 34.68 204.69 30.30 205.30 C 24.78 191.67 23.07 176.73 24.71 162.16 C 26.29 150.78 30.37 139.13 39.12 131.25 Z M 39.12 131.25 " fill-rule="non-zero" fill="#FEFEF3" stroke="#FEFEF3" stroke-width="0.09"/>
            <path d="M 4.83 4.62 C 81.49 4.58 158.17 4.65 234.84 4.78 C 234.95 12.47 234.62 20.19 235.21 27.87 C 235.89 35.48 234.59 43.08 234.74 50.69 C 235.00 88.91 234.79 127.11 234.91 165.32 C 234.61 190.60 224.52 215.01 209.22 234.85 C 199.26 246.84 187.41 257.44 173.56 264.71 C 165.32 268.76 156.99 273.05 147.91 274.85 C 141.15 276.22 134.41 278.10 127.45 277.92 C 120.03 277.74 112.59 278.20 105.18 277.61 C 82.13 274.91 59.49 265.29 43.05 248.66 C 37.12 242.96 31.47 236.91 26.89 230.05 C 20.09 219.91 13.89 209.19 10.37 197.44 C 7.32 187.01 4.29 176.33 4.66 165.35 C 4.86 111.78 4.56 58.20 4.83 4.62 M 44.38 32.15 C 39.77 38.27 39.15 47.14 32.50 51.86 C 26.41 54.73 19.46 54.51 13.02 56.15 C 10.01 56.62 8.44 60.50 9.61 63.13 C 17.22 64.49 24.27 68.62 32.20 68.14 C 41.22 67.99 50.28 68.50 59.27 67.52 C 66.02 66.76 73.12 67.90 79.54 65.17 C 84.23 63.21 88.84 61.01 93.78 59.70 C 89.95 64.17 85.18 67.89 82.19 73.04 C 78.66 79.36 76.70 86.50 76.25 93.72 C 75.87 100.04 76.86 106.32 77.26 112.62 C 68.16 114.16 59.06 116.30 50.70 120.30 C 44.04 123.42 37.42 127.25 32.86 133.15 C 26.65 140.78 23.33 150.36 21.71 159.95 C 19.36 176.96 21.88 194.64 29.18 210.21 C 37.38 207.78 46.20 207.55 54.50 209.57 C 68.12 213.25 80.84 219.80 92.16 228.15 C 97.64 231.96 102.45 236.63 107.95 240.43 C 106.65 232.81 103.90 225.40 103.92 217.60 C 103.98 209.68 103.23 201.54 105.76 193.89 C 108.59 184.88 113.53 176.56 119.64 169.37 C 124.16 174.28 129.10 178.84 133.21 184.11 C 138.20 190.49 140.46 198.53 141.62 206.43 C 143.14 217.15 140.91 227.88 138.79 238.35 C 143.23 235.24 147.27 231.60 151.82 228.62 C 165.69 219.25 181.80 213.72 198.11 210.35 C 202.98 209.23 208.02 209.78 212.93 209.00 C 216.87 202.17 218.64 194.28 220.38 186.66 C 222.41 172.29 222.86 156.32 214.46 143.75 C 206.60 130.63 192.57 122.25 177.90 118.92 C 170.28 116.79 162.29 116.59 154.61 114.67 C 155.86 111.80 157.22 108.98 158.16 106.00 C 159.45 102.02 159.04 97.78 159.04 93.67 C 158.92 89.20 159.17 84.75 159.00 80.30 C 158.79 74.07 156.01 68.34 153.32 62.84 C 157.84 65.42 162.55 67.86 167.74 68.77 C 173.68 69.99 179.75 69.15 185.75 69.12 C 193.86 68.99 202.10 69.84 210.06 67.89 C 218.36 66.30 225.58 61.70 233.00 57.95 C 232.97 57.05 232.91 55.24 232.87 54.33 C 232.22 54.13 230.92 53.73 230.26 53.53 C 230.18 53.51 230.02 53.45 229.94 53.43 C 222.86 51.41 215.29 54.02 208.29 51.71 C 203.48 49.02 201.40 43.51 199.81 38.54 C 198.21 32.79 191.98 30.48 186.75 29.23 C 179.02 27.82 171.08 27.86 163.27 28.33 C 158.68 28.57 154.99 31.66 150.65 32.75 C 145.38 33.68 139.94 33.28 134.71 34.50 C 131.58 35.10 128.58 36.42 125.37 36.65 C 123.07 36.48 120.91 35.53 118.71 34.90 C 110.56 32.20 101.92 31.79 93.52 30.31 C 87.55 29.34 82.46 25.36 76.31 25.16 C 65.44 24.50 53.24 25.02 44.38 32.15 M 114.99 84.51 C 115.05 79.91 117.62 75.95 120.32 72.45 C 124.80 80.44 124.33 90.68 119.09 98.20 C 116.68 94.05 114.51 89.44 114.99 84.51 Z M 114.99 84.51 " fill-rule="non-zero" fill="#FF3635" stroke="#FF3635" stroke-width="0.09"/>
            <path d="M 32.32 54.87 C 37.00 53.61 37.98 48.12 41.25 45.11 C 45.54 47.43 50.06 49.22 54.64 50.89 C 57.04 51.61 58.09 54.06 59.43 55.94 C 43.83 60.48 27.39 64.39 11.07 61.71 C 12.20 60.37 12.87 58.12 14.96 58.08 C 20.76 57.17 26.77 57.04 32.32 54.87 M 184.26 53.49 C 189.54 51.55 194.81 49.49 199.46 46.27 C 201.70 48.73 203.27 51.89 206.04 53.79 C 214.02 56.24 222.58 53.88 230.66 55.93 C 229.04 57.06 227.37 58.30 225.34 58.55 C 217.65 59.74 209.95 61.31 202.12 61.27 C 194.78 61.12 187.43 60.79 180.18 59.64 C 181.26 57.48 181.65 54.37 184.26 53.49 M 24.40 64.66 C 35.77 63.06 47.27 62.11 58.37 59.05 C 57.79 60.99 57.20 62.90 56.58 64.83 C 45.94 65.93 34.94 67.08 24.40 64.66 M 181.10 63.09 C 193.68 63.52 206.30 63.57 218.83 62.29 C 208.89 66.63 197.86 66.65 187.23 66.74 C 184.55 67.05 182.92 64.60 181.10 63.09 Z M 181.10 63.09 " fill-rule="non-zero" fill="#FBDA2E" stroke="#FBDA2E" stroke-width="0.09"/>
            <path d="M 0.59 0.85 C 200.14 0.57 219.39 0.57 239.91 0.51 C 239.30 112.34 240.36 138.70 240.03 165.30 C 240.37 187.33 233.18 209.08 221.35 227.54 C 216.83 233.56 213.15 240.31 207.54 245.45 C 193.98 260.11 176.48 270.92 157.63 277.34 C 145.31 281.33 129.13 282.20 120.91 282.23 C 113.63 282.27 105.13 281.99 98.17 280.76 C 75.03 276.67 52.90 265.02 36.04 248.51 C 19.41 230.50 6.27 208.30 2.53 183.80 C -0.83 167.62 0.40 151.02 0.59 134.62 C 0.47 52.49 0.41 26.67 0.59 0.85 M 4.83 4.62 C 4.56 58.20 4.86 111.78 4.66 165.35 C 4.29 176.33 7.32 187.01 10.37 197.44 C 13.89 209.19 20.09 219.91 26.89 230.05 C 31.47 236.91 37.12 242.96 43.05 248.66 C 59.49 265.29 82.00 274.40 105.18 277.23 C 112.55 278.13 119.77 277.86 127.58 277.54 C 134.53 277.25 141.15 276.22 147.91 274.85 C 156.99 273.05 165.32 268.76 173.56 264.71 C 187.41 257.44 199.26 246.84 209.22 234.85 C 224.52 215.01 234.61 190.60 234.91 165.32 C 234.62 20.19 234.95 12.47 234.84 4.78 C 158.17 4.65 81.49 4.58 4.83 4.62 M 44.38 32.15 C 53.24 25.02 65.44 24.50 76.31 25.16 C 82.46 25.36 87.55 29.34 93.52 30.31 C 101.92 31.79 110.56 32.20 118.71 34.90 C 120.91 35.53 123.07 36.48 125.37 36.65 C 128.58 36.42 131.58 35.10 134.71 34.50 C 139.94 33.28 145.38 33.68 150.65 32.75 C 154.99 31.66 158.68 28.57 163.27 28.33 C 171.08 27.86 179.02 27.82 186.75 29.23 C 191.98 30.48 198.21 32.79 199.81 38.54 C 201.40 43.51 203.48 49.02 208.29 51.71 C 215.29 54.02 222.86 51.41 229.94 53.43 C 230.02 53.45 230.18 53.51 230.26 53.53 C 230.92 53.73 232.22 54.13 232.87 54.33 C 232.91 55.24 232.97 57.05 233.00 57.95 C 225.58 61.70 218.36 66.30 210.06 67.89 C 202.10 69.84 193.86 68.99 185.75 69.12 C 179.75 69.15 173.68 69.99 167.74 68.77 C 162.55 67.86 157.84 65.42 153.32 62.84 C 156.01 68.34 158.79 74.07 159.00 80.30 C 159.17 84.75 158.92 89.20 159.04 93.67 C 159.04 97.78 159.45 102.02 158.16 106.00 C 157.22 108.98 155.86 111.80 154.61 114.67 C 162.29 116.59 170.28 116.79 177.90 118.92 C 192.57 122.25 206.60 130.63 214.46 143.75 C 222.86 156.32 222.41 172.29 220.38 186.66 C 218.64 194.28 216.87 202.17 212.93 209.00 C 208.02 209.78 202.98 209.23 198.11 210.35 C 181.80 213.72 165.69 219.25 151.82 228.62 C 147.27 231.60 143.23 235.24 138.79 238.35 C 140.91 227.88 143.14 217.15 141.62 206.43 C 140.46 198.53 138.20 190.49 133.21 184.11 C 129.10 178.84 124.16 174.28 119.64 169.37 C 113.53 176.56 108.59 184.88 105.76 193.89 C 103.23 201.54 103.98 209.68 103.92 217.60 C 103.90 225.40 106.65 232.81 107.95 240.43 C 102.45 236.63 97.64 231.96 92.16 228.15 C 80.84 219.80 68.12 213.25 54.50 209.57 C 46.20 207.55 37.38 207.78 29.18 210.21 C 21.88 194.64 19.36 176.96 21.71 159.95 C 23.33 150.36 26.65 140.78 32.86 133.15 C 37.42 127.25 44.04 123.42 50.70 120.30 C 59.06 116.30 68.16 114.16 77.26 112.62 C 76.86 106.32 75.87 100.04 76.25 93.72 C 76.70 86.50 78.66 79.36 82.19 73.04 C 85.18 67.89 89.95 64.17 93.78 59.70 C 88.84 61.01 84.23 63.21 79.54 65.17 C 73.12 67.90 66.02 66.76 59.27 67.52 C 50.28 68.50 41.22 67.99 32.20 68.14 C 24.27 68.62 17.22 64.49 9.61 63.13 C 8.44 60.50 10.01 56.62 13.02 56.15 C 19.46 54.51 26.41 54.73 32.50 51.86 C 39.15 47.14 39.77 38.27 44.38 32.15 M 55.66 29.22 C 51.29 30.11 47.43 32.47 44.00 35.24 C 46.65 37.96 49.51 40.70 53.16 41.99 C 57.08 43.47 61.31 43.59 65.45 43.60 C 66.01 41.87 66.36 40.05 67.28 38.46 C 69.94 37.33 73.16 37.38 75.67 38.88 C 77.25 39.77 78.17 42.38 76.68 43.74 C 74.23 46.74 69.99 44.16 66.96 45.61 C 63.31 48.36 61.91 53.36 62.24 57.76 C 62.66 60.41 63.66 64.00 66.86 64.29 C 72.78 65.47 78.74 63.23 83.85 60.36 C 92.69 55.41 103.89 56.67 112.44 61.62 C 119.69 65.40 125.18 72.64 125.97 80.89 C 127.34 87.98 124.29 94.90 120.48 100.71 C 124.54 104.27 128.84 107.72 133.97 109.61 C 139.44 112.09 145.43 112.76 151.24 114.00 C 158.17 100.31 159.44 83.27 153.00 69.15 C 148.39 56.64 138.64 45.90 126.38 40.51 C 115.94 35.19 104.06 34.64 92.68 33.15 C 87.28 32.38 82.76 28.92 77.46 27.82 C 70.21 26.24 62.76 27.64 55.66 29.22 M 147.97 36.35 C 141.23 36.23 134.55 37.15 127.93 38.32 C 133.30 41.95 139.14 45.06 143.55 49.92 C 146.80 53.14 149.15 57.13 152.33 60.40 C 155.41 61.98 158.92 62.54 161.99 64.18 C 167.39 66.98 173.64 66.82 179.55 67.17 C 178.56 65.19 176.93 63.34 176.79 61.06 C 177.31 57.82 178.64 54.78 179.59 51.65 C 176.28 50.80 172.94 50.02 169.76 48.74 C 170.81 46.55 171.89 43.83 174.75 43.77 C 178.27 42.54 180.93 45.56 183.06 47.87 C 187.07 46.08 191.26 44.11 193.89 40.42 C 194.77 39.06 196.48 37.63 195.66 35.86 C 192.04 33.37 187.66 32.43 183.46 31.45 C 177.27 30.00 170.77 29.27 164.48 30.49 C 158.66 31.61 154.14 36.65 147.97 36.35 M 32.32 54.87 C 26.77 57.04 20.76 57.17 14.96 58.08 C 12.87 58.12 12.20 60.37 11.07 61.71 C 27.39 64.39 43.83 60.48 59.43 55.94 C 58.09 54.06 57.04 51.61 54.64 50.89 C 50.06 49.22 45.54 47.43 41.25 45.11 C 37.98 48.12 37.00 53.61 32.32 54.87 M 184.26 53.49 C 181.65 54.37 181.26 57.48 180.18 59.64 C 187.43 60.79 194.78 61.12 202.12 61.27 C 209.95 61.31 217.65 59.74 225.34 58.55 C 227.37 58.30 229.04 57.06 230.66 55.93 C 222.58 53.88 214.02 56.24 206.04 53.79 C 203.27 51.89 201.70 48.73 199.46 46.27 C 194.81 49.49 189.54 51.55 184.26 53.49 M 24.40 64.66 C 34.94 67.08 45.94 65.93 56.58 64.83 C 57.20 62.90 57.79 60.99 58.37 59.05 C 47.27 62.11 35.77 63.06 24.40 64.66 M 85.08 73.87 C 78.81 83.59 78.33 95.73 79.51 106.90 C 80.83 117.73 85.90 127.54 91.60 136.67 C 95.41 142.30 100.34 147.03 104.81 152.12 C 110.52 158.05 117.11 163.05 123.24 168.53 C 130.65 175.90 138.67 183.30 142.28 193.41 C 146.40 205.30 145.44 218.28 143.29 230.47 C 148.44 227.44 153.14 223.69 158.44 220.91 C 174.54 212.27 192.44 206.73 210.74 205.78 C 217.30 190.12 221.41 172.16 216.08 155.53 C 212.63 147.10 208.06 138.66 200.65 133.06 C 196.33 129.77 191.88 126.44 186.70 124.67 C 169.32 119.06 150.74 118.27 133.51 112.17 C 122.27 108.12 112.25 97.96 111.96 85.48 C 111.28 79.17 114.88 73.62 118.62 68.92 C 113.33 63.84 106.51 59.92 99.03 59.74 C 93.34 63.25 88.81 68.39 85.08 73.87 M 181.10 63.09 C 182.92 64.60 184.55 67.05 187.23 66.74 C 197.86 66.65 208.89 66.63 218.83 62.29 C 206.30 63.57 193.68 63.52 181.10 63.09 M 114.99 84.51 C 114.51 89.44 116.68 94.05 119.09 98.20 C 124.33 90.68 124.80 80.44 120.32 72.45 C 117.62 75.95 115.05 79.91 114.99 84.51 M 39.12 131.25 C 30.37 139.13 26.29 150.78 24.71 162.16 C 23.07 176.73 24.78 191.67 30.30 205.30 C 34.68 204.69 39.09 204.09 43.53 204.27 C 50.13 204.35 56.48 206.42 62.72 208.37 C 77.51 213.82 91.01 222.40 102.78 232.85 C 100.04 224.64 98.73 215.97 99.45 207.32 C 100.26 192.46 107.48 178.80 116.58 167.35 C 111.86 162.71 106.95 158.29 102.12 153.78 C 91.47 143.00 82.17 130.23 78.42 115.33 C 64.46 117.72 49.83 121.42 39.12 131.25 Z M 39.12 131.25 " fill-rule="non-zero" fill="#190909" stroke="#190909" stroke-width="0.09"/>
        </g>
    </g>
</svg>